<svg width="20" height="20" viewBox="0 0 20 20" fill="none" xmlns="http://www.w3.org/2000/svg">
<path d="M14.017 0H5.947C4.37015 0.00185307 2.85844 0.629143 1.74353 1.74424C0.628623 2.85933 0.00158794 4.37115 0 5.948L0 14.018C0.00185307 15.5948 0.629143 17.1066 1.74424 18.2215C2.85933 19.3364 4.37115 19.9634 5.948 19.965H14.018C15.5948 19.9631 17.1066 19.3359 18.2215 18.2208C19.3364 17.1057 19.9634 15.5938 19.965 14.017V5.947C19.9631 4.37015 19.3359 2.85844 18.2208 1.74353C17.1057 0.628623 15.5938 0.00158794 14.017 0V0ZM17.957 14.017C17.957 14.5344 17.8551 15.0467 17.6571 15.5248C17.4591 16.0028 17.1689 16.4371 16.803 16.803C16.4371 17.1689 16.0028 17.4591 15.5248 17.6571C15.0467 17.8551 14.5344 17.957 14.017 17.957H5.947C4.90222 17.9567 3.90032 17.5415 3.16165 16.8026C2.42297 16.0638 2.008 15.0618 2.008 14.017V5.947C2.00827 4.90222 2.42349 3.90032 3.16235 3.16165C3.90122 2.42297 4.90322 2.008 5.948 2.008H14.018C15.0628 2.00827 16.0647 2.42349 16.8034 3.16235C17.542 3.90122 17.957 4.90322 17.957 5.948V14.018V14.017Z" fill="#0F172A"/>
<path d="M9.98182 4.81885C8.61325 4.82096 7.30136 5.36563 6.33372 6.33345C5.36609 7.30127 4.82168 8.61328 4.81982 9.98185C4.82141 11.3508 5.36585 12.6632 6.33372 13.6312C7.3016 14.5993 8.61391 15.144 9.98282 15.1458C11.3519 15.1443 12.6645 14.5997 13.6326 13.6316C14.6007 12.6635 15.1452 11.3509 15.1468 9.98185C15.1447 8.61293 14.5998 7.30073 13.6315 6.33304C12.6633 5.36535 11.3507 4.82117 9.98182 4.81985V4.81885ZM9.98182 13.1378C9.14507 13.1378 8.34258 12.8054 7.7509 12.2138C7.15922 11.6221 6.82682 10.8196 6.82682 9.98285C6.82682 9.14609 7.15922 8.3436 7.7509 7.75193C8.34258 7.16025 9.14507 6.82785 9.98182 6.82785C10.8186 6.82785 11.6211 7.16025 12.2127 7.75193C12.8044 8.3436 13.1368 9.14609 13.1368 9.98285C13.1368 10.8196 12.8044 11.6221 12.2127 12.2138C11.6211 12.8054 10.8186 13.1378 9.98182 13.1378V13.1378Z" fill="#0F172A"/>
<path d="M15.1559 6.09509C15.8391 6.09509 16.3929 5.54127 16.3929 4.85809C16.3929 4.17492 15.8391 3.62109 15.1559 3.62109C14.4728 3.62109 13.9189 4.17492 13.9189 4.85809C13.9189 5.54127 14.4728 6.09509 15.1559 6.09509Z" fill="#0F172A"/>
</svg>
